<?xml version="1.0" encoding="utf-8"?>
<svg viewBox="0 0 64 64" xmlns="http://www.w3.org/2000/svg">
  <polygon fill="none" stroke="#000000" stroke-width="2" stroke-miterlimit="10" points="44,59 16,45 36,5 63,19 " transform="matrix(1, 0, 0, 1, 0, 8.881784197001252e-16)"/>
  <polyline fill="none" stroke="#000000" stroke-width="2" stroke-miterlimit="10" points="31.899,14.004 28,6 1,20 19,59 32,52.964   " transform="matrix(1, 0, 0, 1, 0, 8.881784197001252e-16)"/>
  <path d="M 39.68 20.4 C 39.988 20.123 40.013 19.649 39.736 19.341 C 39.459 19.033 38.984 19.008 38.676 19.285 L 36.939 20.849 C 36.203 21.512 35.592 22.062 35.172 22.56 C 34.731 23.084 34.418 23.648 34.418 24.343 C 34.418 25.038 34.731 25.602 35.172 26.126 C 35.592 26.624 36.203 27.174 36.939 27.837 L 38.676 29.4 C 38.984 29.678 39.459 29.653 39.736 29.345 C 40.013 29.037 39.988 28.563 39.68 28.285 L 37.983 26.759 C 37.196 26.05 36.664 25.569 36.32 25.16 C 35.99 24.768 35.918 24.538 35.918 24.343 C 35.918 24.147 35.99 23.918 36.32 23.526 C 36.664 23.117 37.196 22.636 37.983 21.927 L 39.68 20.4 Z" fill="#1C274C" style="transform-origin: 37.1732px 24.3429px;" transform="matrix(0.829036951065, 0.559193015099, -0.559193015099, 0.829036951065, 0.000001741828, -7.13022e-7)"/>
  <path d="M 41.116 31.173 C 41.393 30.865 41.867 30.84 42.175 31.117 L 43.912 32.681 C 44.649 33.343 45.259 33.893 45.679 34.392 C 46.12 34.916 46.433 35.479 46.433 36.174 C 46.433 36.87 46.12 37.433 45.679 37.957 C 45.259 38.456 44.649 39.005 43.912 39.668 L 42.175 41.232 C 41.867 41.509 41.393 41.484 41.116 41.176 C 40.838 40.868 40.863 40.394 41.171 40.117 L 42.868 38.59 C 43.656 37.881 44.187 37.401 44.531 36.992 C 44.861 36.599 44.933 36.37 44.933 36.174 C 44.933 35.979 44.861 35.75 44.531 35.357 C 44.187 34.948 43.656 34.468 42.868 33.759 L 41.171 32.232 C 40.863 31.955 40.838 31.481 41.116 31.173 Z" fill="#1C274C" style="transform-origin: 43.6779px 36.1745px;" transform="matrix(0.829036951065, 0.559193015099, -0.559193015099, 0.829036951065, -5.9379e-7, -5.4459e-8)"/>
  <path opacity="0.5" d="M 42.558 22.101 C 42.959 22.208 43.197 22.619 43.09 23.019 L 39.104 38.019 C 38.997 38.419 38.586 38.658 38.186 38.551 C 37.786 38.445 37.548 38.034 37.654 37.634 L 41.641 22.634 C 41.747 22.233 42.158 21.995 42.558 22.101 Z" fill="#1C274C" style="transform-origin: 40.3722px 30.3262px;" transform="matrix(0.829036951065, 0.559193015099, -0.559193015099, 0.829036951065, 6.7313e-7, -0.000001926374)"/>
  <line fill="none" stroke="#000000" stroke-width="2" stroke-miterlimit="10" x1="38" y1="9" x2="37" y2="11" transform="matrix(1, 0, 0, 1, 0, 8.881784197001252e-16)"/>
  <line fill="none" stroke="#000000" stroke-width="2" stroke-miterlimit="10" x1="7" y1="23" x2="6" y2="21" transform="matrix(1, 0, 0, 1, 0, 8.881784197001252e-16)"/>
  <line fill="none" stroke="#000000" stroke-width="2" stroke-miterlimit="10" x1="43" y1="53" x2="42" y2="55" transform="matrix(1, 0, 0, 1, 0, 8.881784197001252e-16)"/>
</svg>